<?xml version="1.0" encoding="utf-8"?>
<svg xmlns="http://www.w3.org/2000/svg" xmlns:xlink="http://www.w3.org/1999/xlink">

    <symbol viewBox="0 0 16 16" class="bi bi-arrow-left" fill="currentColor" id="arrow-left" xmlns="http://www.w3.org/2000/svg">
        <path fill-rule="evenodd" d="M15 8a.5.5 0 00-.5-.5H2.707l3.147-3.146a.5.5 0 10-.708-.708l-4 4a.5.5 0 000 .708l4 4a.5.5 0 00.708-.708L2.707 8.5H14.5A.5.5 0 0015 8z"/>
    </symbol>

    <symbol viewBox="0 0 16 16" class="bi bi-box-arrow-in-right" fill="currentColor" id="box-arrow-in-right" xmlns="http://www.w3.org/2000/svg">
        <path fill-rule="evenodd" d="M6 3.5a.5.5 0 01.5-.5h8a.5.5 0 01.5.5v9a.5.5 0 01-.5.5h-8a.5.5 0 01-.5-.5v-2a.5.5 0 00-1 0v2A1.5 1.5 0 006.5 14h8a1.5 1.5 0 001.5-1.5v-9A1.5 1.5 0 0014.5 2h-8A1.5 1.5 0 005 3.5v2a.5.5 0 001 0v-2z"/>
        <path fill-rule="evenodd" d="M11.854 8.354a.5.5 0 000-.708l-3-3a.5.5 0 10-.708.708L10.293 7.5H1.5a.5.5 0 000 1h8.793l-2.147 2.146a.5.5 0 00.708.708l3-3z"/>
    </symbol>

    <symbol viewBox="0 0 16 16" class="bi bi-box-arrow-left" fill="currentColor" id="box-arrow-left" xmlns="http://www.w3.org/2000/svg">
        <path fill-rule="evenodd" d="M6 12.5a.5.5 0 00.5.5h8a.5.5 0 00.5-.5v-9a.5.5 0 00-.5-.5h-8a.5.5 0 00-.5.5v2a.5.5 0 01-1 0v-2A1.5 1.5 0 016.5 2h8A1.5 1.5 0 0116 3.5v9a1.5 1.5 0 01-1.5 1.5h-8A1.5 1.5 0 015 12.5v-2a.5.5 0 011 0v2z"/>
        <path fill-rule="evenodd" d="M.146 8.354a.5.5 0 010-.708l3-3a.5.5 0 11.708.708L1.707 7.5H10.5a.5.5 0 010 1H1.707l2.147 2.146a.5.5 0 01-.708.708l-3-3z"/>
    </symbol>

    <symbol viewBox="0 0 16 16" class="bi bi-cart3" fill="currentColor" id="cart3" xmlns="http://www.w3.org/2000/svg">
        <path fill-rule="evenodd" d="M0 1.5A.5.5 0 01.5 1H2a.5.5 0 01.485.379L2.89 3H14.5a.5.5 0 01.49.598l-1 5a.5.5 0 01-.465.401l-9.397.472L4.415 11H13a.5.5 0 010 1H4a.5.5 0 01-.491-.408L2.01 3.607 1.61 2H.5a.5.5 0 01-.5-.5zM3.102 4l.84 4.479 9.144-.459L13.89 4H3.102zM5 12a2 2 0 100 4 2 2 0 000-4zm7 0a2 2 0 100 4 2 2 0 000-4zm-7 1a1 1 0 100 2 1 1 0 000-2zm7 0a1 1 0 100 2 1 1 0 000-2z"/>
    </symbol>

    <symbol viewBox="0 0 16 16" class="bi bi-collection-fill" fill="currentColor" id="collection-fill" xmlns="http://www.w3.org/2000/svg">
        <path d="M0 13a1.5 1.5 0 001.5 1.5h13A1.5 1.5 0 0016 13V6a1.5 1.5 0 00-1.5-1.5h-13A1.5 1.5 0 000 6v7z"/>
        <path fill-rule="evenodd" d="M2 3a.5.5 0 00.5.5h11a.5.5 0 000-1h-11A.5.5 0 002 3zm2-2a.5.5 0 00.5.5h7a.5.5 0 000-1h-7A.5.5 0 004 1z"/>
    </symbol>

    <symbol viewBox="0 0 16 16" class="bi bi-house" fill="currentColor" id="house" xmlns="http://www.w3.org/2000/svg">
        <path fill-rule="evenodd" d="M2 13.5V7h1v6.5a.5.5 0 00.5.5h9a.5.5 0 00.5-.5V7h1v6.5a1.5 1.5 0 01-1.5 1.5h-9A1.5 1.5 0 012 13.5zm11-11V6l-2-2V2.5a.5.5 0 01.5-.5h1a.5.5 0 01.5.5z"/>
        <path fill-rule="evenodd" d="M7.293 1.5a1 1 0 011.414 0l6.647 6.646a.5.5 0 01-.708.708L8 2.207 1.354 8.854a.5.5 0 11-.708-.708L7.293 1.5z"/>
    </symbol>

    <symbol viewBox="0 0 16 16" class="bi bi-check2" fill="currentColor" id="check2" xmlns="http://www.w3.org/2000/svg">
        <path fill-rule="evenodd" d="M13.854 3.646a.5.5 0 010 .708l-7 7a.5.5 0 01-.708 0l-3.5-3.5a.5.5 0 11.708-.708L6.5 10.293l6.646-6.647a.5.5 0 01.708 0z"/>
    </symbol>

    <symbol viewBox="0 0 16 16" class="bi bi-check2-all" fill="currentColor" id="check2-all" xmlns="http://www.w3.org/2000/svg">
        <path fill-rule="evenodd" d="M12.354 3.646a.5.5 0 010 .708l-7 7a.5.5 0 01-.708 0l-3.5-3.5a.5.5 0 11.708-.708L5 10.293l6.646-6.647a.5.5 0 01.708 0z"/>
        <path d="M6.25 8.043l-.896-.897a.5.5 0 10-.708.708l.897.896.707-.707zm1 2.414l.896.897a.5.5 0 00.708 0l7-7a.5.5 0 00-.708-.708L8.5 10.293l-.543-.543-.707.707z"/>
    </symbol>

    <symbol viewBox="0 0 16 16" class="bi bi-chevron-left" fill="currentColor" id="chevron-left" xmlns="http://www.w3.org/2000/svg">
        <path fill-rule="evenodd" d="M11.354 1.646a.5.5 0 010 .708L5.707 8l5.647 5.646a.5.5 0 01-.708.708l-6-6a.5.5 0 010-.708l6-6a.5.5 0 01.708 0z"/>
    </symbol>

    <symbol viewBox="0 0 16 16" class="bi bi-chevron-right" fill="currentColor" id="chevron-right" xmlns="http://www.w3.org/2000/svg">
        <path fill-rule="evenodd" d="M4.646 1.646a.5.5 0 01.708 0l6 6a.5.5 0 010 .708l-6 6a.5.5 0 01-.708-.708L10.293 8 4.646 2.354a.5.5 0 010-.708z"/>
    </symbol>

    <symbol viewBox="0 0 16 16" class="bi bi-person" fill="currentColor" id="person" xmlns="http://www.w3.org/2000/svg">
        <path fill-rule="evenodd" d="M10 5a2 2 0 11-4 0 2 2 0 014 0zM8 8a3 3 0 100-6 3 3 0 000 6zm6 5c0 1-1 1-1 1H3s-1 0-1-1 1-4 6-4 6 3 6 4zm-1-.004c-.001-.246-.154-.986-.832-1.664C11.516 10.68 10.289 10 8 10c-2.29 0-3.516.68-4.168 1.332-.678.678-.83 1.418-.832 1.664h10z"/>
    </symbol>

    <symbol viewBox="0 0 16 16" class="bi bi-search" fill="currentColor" id="search" xmlns="http://www.w3.org/2000/svg">
        <path fill-rule="evenodd" d="M10.442 10.442a1 1 0 011.415 0l3.85 3.85a1 1 0 01-1.414 1.415l-3.85-3.85a1 1 0 010-1.415z"/>
        <path fill-rule="evenodd" d="M6.5 12a5.5 5.5 0 100-11 5.5 5.5 0 000 11zM13 6.5a6.5 6.5 0 11-13 0 6.5 6.5 0 0113 0z"/>
    </symbol>

    <symbol viewBox="0 0 16 16" class="bi bi-trash" fill="currentColor" id="trash" xmlns="http://www.w3.org/2000/svg">
        <path d="M5.5 5.5A.5.5 0 016 6v6a.5.5 0 01-1 0V6a.5.5 0 01.5-.5zm2.5 0a.5.5 0 01.5.5v6a.5.5 0 01-1 0V6a.5.5 0 01.5-.5zm3 .5a.5.5 0 00-1 0v6a.5.5 0 001 0V6z"/>
        <path fill-rule="evenodd" d="M14.5 3a1 1 0 01-1 1H13v9a2 2 0 01-2 2H5a2 2 0 01-2-2V4h-.5a1 1 0 01-1-1V2a1 1 0 011-1H6a1 1 0 011-1h2a1 1 0 011 1h3.5a1 1 0 011 1v1zM4.118 4L4 4.059V13a1 1 0 001 1h6a1 1 0 001-1V4.059L11.882 4H4.118zM2.5 3V2h11v1h-11z"/>
    </symbol>

    <symbol id="facebook" xmlns="http://www.w3.org/2000/svg" fill="currentColor" class="bi bi-facebook" viewBox="0 0 16 16">
        <path fill-rule="evenodd" d="M16 8.049c0-4.446-3.582-8.05-8-8.05C3.58 0-.002 3.603-.002 8.05c0 4.017 2.926 7.347 6.75 7.951v-5.625h-2.03V8.05H6.75V6.275c0-2.017 1.195-3.131 3.022-3.131.876 0 1.791.157 1.791.157v1.98h-1.009c-.993 0-1.303.621-1.303 1.258v1.51h2.218l-.354 2.326H9.25V16c3.824-.604 6.75-3.934 6.75-7.951z"/>
    </symbol>

    <symbol id="instagram" xmlns="http://www.w3.org/2000/svg" fill="currentColor" class="bi bi-instagram" viewBox="0 0 16 16">
        <path fill-rule="evenodd" d="M8 0C5.829 0 5.556.01 4.703.048 3.85.088 3.269.222 2.76.42a3.917 3.917 0 0 0-1.417.923A3.927 3.927 0 0 0 .42 2.76C.222 3.268.087 3.85.048 4.7.01 5.555 0 5.827 0 8.001c0 2.172.01 2.444.048 3.297.04.852.174 1.433.372 1.942.205.526.478.972.923 1.417.444.445.89.719 1.416.923.51.198 1.09.333 1.942.372C5.555 15.99 5.827 16 8 16s2.444-.01 3.298-.048c.851-.04 1.434-.174 1.943-.372a3.916 3.916 0 0 0 1.416-.923c.445-.445.718-.891.923-1.417.197-.509.332-1.09.372-1.942C15.99 10.445 16 10.173 16 8s-.01-2.445-.048-3.299c-.04-.851-.175-1.433-.372-1.941a3.926 3.926 0 0 0-.923-1.417A3.911 3.911 0 0 0 13.24.42c-.51-.198-1.092-.333-1.943-.372C10.443.01 10.172 0 7.998 0h.003zm-.717 1.442h.718c2.136 0 2.389.007 3.232.046.78.035 1.204.166 1.486.275.373.145.64.319.92.599.28.28.453.546.598.92.11.281.24.705.275 1.485.039.843.047 1.096.047 3.231s-.008 2.389-.047 3.232c-.035.78-.166 1.203-.275 1.485a2.47 2.47 0 0 1-.599.919c-.28.28-.546.453-.92.598-.28.11-.704.24-1.485.276-.843.038-1.096.047-3.232.047s-2.39-.009-3.233-.047c-.78-.036-1.203-.166-1.485-.276a2.478 2.478 0 0 1-.92-.598 2.48 2.48 0 0 1-.6-.92c-.109-.281-.24-.705-.275-1.485-.038-.843-.046-1.096-.046-3.233 0-2.136.008-2.388.046-3.231.036-.78.166-1.204.276-1.486.145-.373.319-.64.599-.92.28-.28.546-.453.92-.598.282-.11.705-.24 1.485-.276.738-.034 1.024-.044 2.515-.045v.002zm4.988 1.328a.96.96 0 1 0 0 1.92.96.96 0 0 0 0-1.92zm-4.27 1.122a4.109 4.109 0 1 0 0 8.217 4.109 4.109 0 0 0 0-8.217zm0 1.441a2.667 2.667 0 1 1 0 5.334 2.667 2.667 0 0 1 0-5.334z"/>
    </symbol>

    <symbol id="pinterest" xmlns="http://www.w3.org/2000/svg" fill="currentColor" class="bi bi-pinterest" viewBox="0 0 496 512">
        <path d="M496 256c0 137-111 248-248 248-25.6 0-50.2-3.9-73.4-11.1 10.1-16.5 25.2-43.5 30.8-65 3-11.6 15.4-59 15.4-59 8.1 15.4 31.7 28.5 56.8 28.5 74.8 0 128.7-68.8 128.7-154.3 0-81.9-66.9-143.2-152.9-143.2-107 0-163.9 71.8-163.9 150.1 0 36.4 19.4 81.7 50.3 96.1 4.7 2.2 7.2 1.2 8.3-3.3.8-3.4 5-20.3 6.9-28.1.6-2.5.3-4.7-1.7-7.1-10.1-12.5-18.3-35.3-18.3-56.6 0-54.7 41.4-107.6 112-107.6 60.9 0 103.6 41.5 103.6 100.9 0 67.1-33.9 113.6-78 113.6-24.3 0-42.6-20.1-36.7-44.8 7-29.5 20.5-61.3 20.5-82.6 0-19-10.2-34.9-31.4-34.9-24.9 0-44.9 25.7-44.9 60.2 0 22 7.4 36.8 7.4 36.8s-24.5 103.8-29 123.2c-5 21.4-3 51.6-.9 71.2C65.4 450.9 0 361.1 0 256 0 119 111 8 248 8s248 111 248 248z"/>
    </symbol>
</svg>